<svg width="500" height="500" xmlns="http://www.w3.org/2000/svg" xml:space="preserve" version="1.1">

 <g>
  <title>Layer 1</title>
  <path fill="white" d="m72.3,299c2.1,-3 3.1,-6.2 3.1,-9.7c0,-1.9 -0.4,-4.3 -1.2,-7.3c-0.4,-1.1 -0.8,-2.3 -1.1,-3.4c-0.4,-1.2 -0.7,-2.4 -1.1,-3.6c0.2,0.5 -3.4,2.2 -3.8,2.4c-1.6,0.7 -3.4,1.2 -5.2,1.4c-3.8,0.6 -7.7,0.1 -11.4,-0.9c-2.6,-0.7 -5.4,-1.5 -8.1,-1.5c-5.5,0 -8.2,3.4 -8.2,10.2c0,3.7 0.8,6.3 2.2,7.8c0.8,0.8 1.6,1.6 2.3,2.2c0.7,0.7 1.5,1.5 2.3,2.2l-26,0c5,-3.8 8.1,-7.8 9.4,-12c2.9,-9.6 6.6,-21.6 11.2,-36c4.6,-14.4 10.1,-31.4 16.6,-51l24.7,0l25.3,85c2.1,6.8 4.6,11.5 7.5,14.1l-38.5,0l0,0.1zm-16.5,-82.4l-10.9,32.8c-0.7,2.2 -1.6,4.9 -2.6,7.9c-1,3.1 -2.3,6.7 -3.8,10.9c2.1,-1 4.2,-2 6.5,-2.5c3.4,-0.8 7,0.7 10.3,1.3c3.8,0.7 6.3,1 7.6,1c3.4,0 5.3,-1.2 5.8,-3.6c0.2,-0.9 0.2,-1.4 0.1,-1.5l-13,-46.3z" id="XMLID_3_"/>
  <path fill="white" d="m208.9,291.9c-2.2,-0.5 -4,-2.1 -5.2,-4c-1.5,-2.2 -2.2,-4.9 -3,-7.4c-2.6,-8.9 -6,-17.8 -12.3,-24.6c-6.1,-6.6 -14.9,-10.7 -23.9,-11.2c8.3,-2.4 17,-2.8 25.2,-5.5c8.1,-2.8 16,-8.8 17.3,-17.3c1.2,-8 -4.2,-16 -11.5,-19.4c-6,-2.8 -12.8,-2.8 -19.4,-2.8c-10.4,0 -20.7,0 -31.1,0.1c-5.2,0 -10.4,0 -15.6,0c-2.6,0 -5.2,0 -7.8,0c-1.3,0 -2.6,0 -3.9,0c-1.2,0 -2.7,-0.2 -3.9,0c-0.6,0.1 -0.5,0.2 -0.2,0.8c0.3,0.5 0.5,1 0.8,1.4c0.5,0.9 0.9,1.9 1.2,2.9c0.7,2 1.1,4.1 1.3,6.2c0.5,4.3 0.3,8.7 0.1,13.1c0,0.8 -0.1,1.6 -0.1,2.5c-0.9,24.2 3.7,49.2 -3.6,72.3c11.8,0 23.7,0 35.5,-0.1c-3.9,-6.4 -3.9,-14.3 -3.9,-21.8c0.1,-6.5 0.1,-13 0.2,-19.5c0,-1 0,-2 0.4,-2.8c0.7,-1.7 2.7,-2.6 4.5,-2.8c5.5,-0.5 10.3,3.8 12.8,8.7c3.4,6.6 3.9,14.2 5.4,21.5c1.5,7.3 4.6,14.9 11.1,18.4c5.2,2.8 11.7,2.4 17.4,0.9c5.5,-1.4 11.4,-4.1 13.4,-9.5c-0.3,0 -0.8,0 -1.2,-0.1zm-56.7,-51.3c-0.8,0.5 -1.5,0.9 -2.2,1.3c-0.6,0.4 -1.2,0.8 -1.6,1c-0.8,0.4 -1.5,0.7 -2.1,1s-1.1,0.5 -1.5,0.7c-0.1,-0.5 -0.2,-1 -0.2,-1.7c0,-0.6 -0.1,-1.3 -0.1,-2.1l0.1,-33.8l17.4,0c3.7,0 6.8,0.8 9.4,2.5c3,2 4.5,4.7 4.5,8.1c0,4.5 -3,9.1 -9,13.7c-0.9,0.7 -2.6,1.8 -5,3.4s-5.7,3.6 -9.7,5.9z" id="XMLID_19_"/>
  <path fill="white" d="m295.1,231.2c-0.1,-1.9 -0.3,-4.6 -0.5,-8.1l-1.2,-23.2l-82,0c-0.3,8 -0.5,15.1 -0.8,21.2c-0.2,4.9 -0.3,9.3 -0.4,13.1l2.8,0c0.1,-0.2 0.2,-0.3 0.2,-0.4c0.6,-1.1 1.1,-2.2 1.6,-3.3c8.1,-15.4 16.1,-23 24.1,-22.8l0.3,0l0,76c0,4.1 -1.5,9.1 -4.3,15.1l35.4,0c-2.8,-8.3 -4.2,-13.3 -4.2,-15.1l0,-76c8.7,0.5 16.3,6.9 22.8,19.2c1,1.9 1.8,3.5 2.5,4.9c0.5,0.9 0.9,1.7 1.3,2.5l2.3,0c0.3,-0.8 0.2,-1.8 0.1,-3.1z" id="XMLID_9_"/>
  <path fill="white" d="m382.1,298.8l-64.6,0.3c-5.7,0 -10.3,0 -13.7,-0.1c-3.4,-0.1 -5.9,-0.1 -7.3,-0.2c3.4,-2.9 5.3,-7 5.7,-12.4c0.1,-1.2 0.2,-2.1 0.2,-2.6c0,-0.5 0.1,-0.7 0.1,-0.5l0,-70.8c0,-5.9 -1.9,-10.1 -5.5,-12.6l82.9,0c0.4,3.2 0.8,6.3 1.1,9.3c0.3,3 0.7,5.8 1,8.4c0.4,3.2 0.7,5.7 0.8,7.4c0.2,1.8 0.2,2.8 0.2,3.2l0,0.1c-13.7,-14 -26.1,-21.2 -37.2,-21.6l-4.9,0l-12,0l0,39.6c1.7,-3 4.1,-5.6 7.1,-7.7c3,-2.1 6.1,-3.2 9.2,-3.2c5.8,0 11.4,1.6 17.1,2.3c6.1,0.7 10.4,-0.2 15.3,-4c0,5.2 -1.9,9.4 -5.5,12.7c-3.5,3.2 -8.4,5.6 -13.3,5.3c-5.6,-0.3 -11.4,-2 -16.9,-2.9c-0.3,-0.1 -0.9,-0.2 -1.6,-0.2c-1.8,0 -3.7,0.5 -5.6,1.5c-2,1 -3.8,2 -5.6,3l-0.2,37.5c2.6,0.1 5,0.2 7.3,0.2c2.4,0 4.6,0 6.7,0c1.9,0 3.4,0 4.5,0c1.1,0 1.9,0 2.4,-0.2c6.9,-0.7 13.9,-4.4 21.1,-11.2c1.8,-1.7 4,-4.1 6.7,-7.2c2.7,-3.1 5.8,-6.9 9.3,-11.4l-4.8,38z" id="XMLID_11_"/>
  <path fill="white" d="m444.8,298.8c0.8,-1.1 1.2,-2.5 1.2,-4.3c0,-2.9 -0.6,-5.5 -1.8,-7.9c-3.8,-7.9 -7.3,-14.4 -10.3,-19.5c-3.1,-5.1 -5.8,-8.9 -8.1,-11.4c-7.2,5.6 -10.8,13.3 -10.8,23.2c0,4.1 0.8,7.7 2.2,10.8c1,2.1 3.1,5.2 6.3,9.1l-34.6,0c-0.5,-0.8 -0.8,-1.8 -0.8,-3c0,-6.5 2.6,-13.7 7.9,-21.7c2.3,-3.4 4.8,-6.5 7.4,-9.4c2.6,-2.8 5.5,-5.5 8.6,-8c1.6,-1.3 5.2,-4 10.8,-8.1l-21.6,-37.8c-0.8,-1.4 -1.5,-2.6 -2.2,-3.7c-0.7,-1 -1.2,-1.8 -1.6,-2.3c-1.8,-2.2 -3.5,-3.8 -5.1,-4.8l40.9,0c-1.8,1.5 -2.7,3.4 -2.7,5.8c0,1.1 0.2,2.1 0.5,3l3.6,6.3l11.7,20.2c0.1,0.2 0.2,0.4 0.3,0.6c0.8,0 2.1,-0.6 4,-1.9c4.6,-3.1 6.9,-7.4 6.9,-13c0,-2.4 -0.7,-4.5 -2.1,-6.4c-1.4,-1.9 -3.3,-2.8 -5.5,-2.8c-0.5,0 -1.1,0 -1.7,0.1c-0.7,0.1 -1.4,0.1 -2.2,0.2c-0.5,-2.3 -0.4,-4.2 0.7,-6.4c1,-1.9 2.5,-3.5 4.2,-4.7c3.2,-2.3 6.7,-3.4 10.6,-3.4c4.1,0 7.7,1.5 10.9,4.5c3.3,3 4.9,6.5 4.9,10.5c0,6.1 -3.1,12 -9.4,17.8c-5.1,4.8 -11,8.7 -17.7,11.7l23.8,42.6c2.5,4.3 6.5,9 12.1,14.2l-41.3,0l0,-0.1z" id="XMLID_13_"/>
 </g>
</svg>